<?xml version="1.0" standalone="no"?>
<!DOCTYPE svg PUBLIC "-//W3C//DTD SVG 20010904//EN"
 "http://www.w3.org/TR/2001/REC-SVG-20010904/DTD/svg10.dtd">
<svg version="1.0" xmlns="http://www.w3.org/2000/svg"
 width="2080.000000pt" height="2080.000000pt" viewBox="0 0 2080.000000 2080.000000"
 preserveAspectRatio="xMidYMid meet">
<metadata>
Created by potrace 1.14, written by Peter Selinger 2001-2017
</metadata>
<g transform="translate(0.000000,2080.000000) scale(0.100000,-0.100000)"
fill="#000000" stroke="none">
<path d="M14330 20773 c-36 -13 -72 -26 -80 -28 -14 -3 -169 -59 -200 -72 -8
-3 -19 -7 -25 -8 -38 -9 -576 -234 -585 -244 -3 -3 -13 -7 -22 -9 -17 -3 -233
-101 -280 -128 -16 -8 -28 -12 -28 -7 0 4 -4 2 -9 -5 -4 -7 -14 -14 -22 -16
-31 -5 -640 -315 -779 -396 -38 -22 -73 -40 -79 -40 -6 0 -11 -4 -11 -10 0 -5
-6 -10 -13 -10 -7 0 -29 -11 -48 -25 -20 -13 -39 -21 -43 -18 -3 4 -6 1 -6 -6
0 -7 -4 -9 -10 -6 -5 3 -10 2 -10 -2 0 -5 -17 -17 -37 -28 -21 -11 -40 -22
-43 -25 -3 -3 -23 -14 -45 -25 -22 -11 -42 -22 -45 -26 -3 -3 -12 -9 -20 -12
-8 -4 -28 -16 -45 -27 -16 -10 -49 -29 -72 -41 -24 -13 -43 -26 -43 -31 0 -4
-4 -8 -9 -8 -12 0 -143 -79 -331 -202 -85 -55 -164 -106 -175 -112 -11 -6 -22
-13 -25 -17 -3 -3 -77 -54 -165 -114 -88 -59 -172 -118 -186 -129 -14 -12 -36
-28 -49 -36 -12 -8 -44 -31 -70 -50 -26 -19 -58 -42 -70 -50 -12 -8 -32 -23
-43 -32 -12 -10 -26 -21 -32 -26 -5 -4 -26 -19 -45 -32 -19 -13 -40 -29 -46
-35 -7 -5 -24 -19 -40 -30 -15 -11 -55 -41 -88 -67 -34 -27 -66 -51 -71 -55
-6 -5 -44 -35 -85 -68 -41 -33 -83 -67 -93 -75 -11 -8 -24 -20 -31 -25 -6 -6
-49 -42 -96 -80 -47 -38 -90 -74 -96 -80 -6 -5 -37 -32 -70 -60 -120 -103
-160 -138 -180 -159 -12 -11 -45 -41 -74 -66 -29 -25 -77 -67 -106 -95 -29
-27 -98 -93 -154 -145 -160 -149 -442 -436 -600 -610 -47 -51 -98 -108 -115
-126 -16 -18 -52 -58 -80 -90 -27 -31 -57 -64 -65 -73 -8 -9 -33 -38 -55 -66
-22 -27 -47 -56 -55 -65 -8 -8 -31 -35 -50 -59 -19 -23 -43 -53 -53 -64 -10
-12 -28 -35 -40 -50 -12 -15 -30 -38 -41 -50 -10 -12 -30 -38 -45 -57 -14 -19
-32 -41 -40 -49 -7 -8 -39 -49 -70 -90 -31 -42 -58 -78 -61 -81 -3 -3 -17 -21
-30 -40 -28 -40 -39 -55 -60 -79 -8 -9 -28 -37 -45 -61 -16 -25 -33 -46 -37
-48 -5 -2 -8 -10 -8 -17 0 -7 -7 -15 -15 -19 -8 -3 -15 -10 -15 -16 0 -6 -5
-16 -10 -23 -33 -38 -80 -107 -80 -116 0 -5 -3 -11 -8 -13 -4 -1 -34 -43 -67
-93 -33 -49 -63 -91 -67 -93 -5 -2 -8 -10 -8 -18 0 -8 -7 -17 -15 -20 -8 -4
-15 -11 -15 -18 0 -6 -25 -48 -55 -93 -30 -46 -55 -87 -55 -92 0 -5 -3 -11 -7
-13 -10 -4 -73 -106 -73 -117 0 -4 -9 -16 -20 -26 -11 -10 -20 -22 -20 -27 0
-5 -35 -68 -79 -141 -43 -73 -95 -163 -115 -200 -20 -37 -46 -84 -58 -105 -11
-20 -44 -82 -73 -137 -29 -55 -63 -120 -76 -145 -12 -25 -22 -48 -21 -52 1 -5
-3 -8 -9 -8 -5 0 -8 -4 -5 -9 4 -5 3 -11 -1 -13 -9 -4 -83 -154 -83 -168 0 -6
-5 -10 -10 -10 -6 0 -9 -3 -8 -7 1 -9 -14 -45 -82 -189 -28 -57 -50 -110 -50
-116 0 -6 -7 -19 -15 -28 -8 -9 -16 -25 -18 -36 -8 -39 -29 -84 -40 -84 -6 0
-8 -3 -5 -6 6 -5 -6 -39 -37 -109 -30 -65 -98 -241 -98 -252 0 -7 -4 -13 -8
-13 -4 0 -10 -14 -14 -31 -4 -17 -13 -42 -21 -57 -8 -15 -14 -33 -14 -40 0 -7
-4 -20 -10 -30 -10 -19 -111 -304 -130 -367 -6 -22 -15 -49 -20 -60 -20 -48
-48 -144 -42 -149 3 -3 -1 -6 -8 -6 -7 0 -11 -3 -7 -6 7 -7 -21 -104 -35 -121
-6 -7 -8 -13 -5 -13 3 0 -5 -34 -18 -75 -12 -41 -21 -75 -19 -75 3 0 0 -9 -6
-21 -6 -11 -13 -28 -15 -37 -2 -9 -11 -46 -20 -82 -10 -36 -19 -72 -20 -80 -1
-8 -5 -22 -8 -30 -7 -16 -27 -94 -33 -123 -2 -10 -6 -27 -9 -37 -3 -10 -8 -29
-11 -42 -9 -40 -12 -53 -14 -53 -1 0 -4 -11 -5 -25 -4 -27 -12 -63 -15 -67 -2
-2 -3 -11 -4 -20 -1 -10 -5 -27 -9 -38 -6 -20 -13 -49 -23 -110 -3 -16 -10
-35 -15 -41 -5 -6 -6 -13 -4 -16 3 -3 1 -27 -5 -54 -21 -89 -68 -333 -75 -384
-3 -19 -7 -46 -10 -60 -3 -14 -8 -45 -12 -70 -6 -52 -11 -75 -13 -75 -1 0 -3
-11 -5 -25 -3 -30 -15 -116 -21 -150 -8 -50 -17 -126 -18 -152 -1 -16 -3 -28
-6 -28 -3 0 -5 -12 -4 -27 1 -16 -1 -32 -4 -38 -3 -5 -7 -25 -8 -45 -1 -19 -5
-60 -9 -90 -4 -30 -8 -68 -10 -85 -2 -16 -6 -55 -9 -85 -11 -94 -17 -165 -31
-340 -3 -47 -8 -110 -11 -140 -2 -30 -6 -91 -8 -135 -3 -44 -8 -141 -12 -215
-10 -173 -10 -1139 0 -1330 12 -235 15 -291 21 -375 3 -44 7 -102 9 -130 4
-49 15 -193 21 -264 2 -20 4 -36 5 -36 1 0 3 -25 5 -55 2 -30 4 -55 5 -55 1 0
7 -58 14 -150 2 -27 5 -50 6 -50 1 0 3 -20 5 -45 2 -25 4 -45 5 -45 1 0 4 -22
5 -50 2 -27 4 -50 6 -50 1 0 3 -13 4 -30 2 -16 4 -30 5 -30 1 0 3 -16 5 -35
12 -113 32 -265 35 -265 1 0 3 -20 6 -45 4 -49 12 -101 19 -134 2 -12 7 -43
10 -70 3 -27 8 -52 9 -55 2 -3 6 -28 10 -56 6 -48 11 -82 21 -135 3 -14 8 -42
11 -64 6 -38 9 -58 19 -106 7 -40 14 -81 21 -130 3 -25 8 -48 10 -51 2 -4 6
-24 9 -45 4 -22 8 -46 11 -55 2 -9 7 -32 9 -50 4 -32 7 -46 22 -109 3 -14 5
-33 5 -42 0 -10 4 -18 9 -18 6 0 8 -4 4 -9 -5 -8 23 -150 55 -286 6 -22 12
-52 14 -68 3 -15 7 -35 10 -45 3 -9 7 -28 10 -42 3 -14 12 -52 20 -86 16 -64
23 -99 33 -149 3 -16 9 -38 14 -47 5 -10 8 -18 5 -18 -2 0 10 -51 26 -112 16
-62 30 -123 31 -135 0 -13 4 -23 7 -23 3 0 6 -8 6 -17 1 -16 13 -64 84 -328
10 -38 28 -105 39 -148 12 -43 23 -82 25 -86 3 -4 8 -21 11 -37 8 -38 13 -58
15 -61 2 -2 4 -7 5 -13 1 -5 4 -12 5 -15 1 -3 4 -9 5 -15 1 -5 4 -13 5 -17 1
-5 2 -11 1 -15 0 -4 6 -26 15 -50 9 -24 17 -50 19 -58 2 -8 4 -17 5 -20 1 -3
3 -9 5 -15 1 -5 3 -13 5 -17 1 -5 3 -11 4 -15 4 -19 48 -164 66 -218 11 -33
22 -69 24 -80 3 -11 16 -56 31 -100 14 -44 28 -91 31 -105 3 -13 10 -30 16
-37 6 -7 7 -13 3 -13 -4 0 -1 -7 6 -17 8 -9 13 -19 11 -22 -4 -6 13 -68 28
-106 8 -21 88 -258 95 -285 7 -23 48 -139 105 -300 28 -80 53 -149 54 -155 2
-5 6 -17 9 -25 3 -8 18 -49 32 -90 25 -72 148 -404 164 -445 5 -11 14 -33 21
-50 8 -16 14 -35 15 -40 3 -14 53 -142 72 -184 8 -18 16 -39 18 -45 2 -12 19
-57 35 -93 41 -95 81 -196 85 -217 3 -11 9 -24 15 -30 5 -5 10 -18 10 -28 0
-10 5 -18 11 -18 5 0 8 -4 5 -8 -3 -5 1 -19 8 -33 6 -13 20 -44 30 -69 19 -48
32 -78 65 -152 11 -26 21 -53 21 -60 0 -7 7 -22 15 -32 8 -10 12 -23 9 -27 -3
-5 0 -9 6 -9 6 0 9 -4 6 -9 -3 -5 1 -11 8 -14 8 -3 16 -3 18 1 2 4 55 41 118
82 63 41 117 77 120 80 3 3 52 39 110 80 58 40 108 79 112 84 4 6 8 8 8 4 0
-5 9 0 19 10 24 21 33 28 101 77 30 22 57 42 60 45 3 3 26 21 53 40 26 18 47
38 47 43 0 6 3 7 6 4 4 -4 15 3 25 15 11 11 19 18 19 14 0 -4 10 3 23 14 12
12 51 44 87 72 36 27 76 60 90 72 14 11 45 37 70 56 25 19 50 39 56 45 6 5 30
26 54 45 24 19 48 40 54 45 6 6 36 30 66 55 30 25 57 47 60 50 3 3 37 32 75
65 39 33 75 64 81 70 6 5 40 35 75 65 35 30 76 66 90 80 15 14 60 54 100 90
40 36 94 85 120 110 27 25 85 79 131 120 116 106 720 710 858 859 63 68 129
138 145 156 17 17 62 67 100 110 39 43 90 101 115 128 57 63 73 82 118 136 21
24 51 58 67 76 17 17 48 53 70 80 22 26 48 57 58 69 31 36 50 59 122 146 38
47 72 87 75 90 3 3 32 39 65 80 32 41 63 77 67 78 4 2 8 10 8 17 0 7 7 15 15
19 8 3 15 13 15 21 0 9 4 14 9 10 5 -3 12 3 15 12 3 10 16 29 29 43 22 24 95
119 127 164 8 11 22 28 30 36 9 8 24 28 33 43 10 16 25 36 32 45 29 34 242
324 330 448 49 70 96 133 103 141 7 7 11 13 8 13 -3 0 12 24 34 52 22 29 40
58 40 65 0 6 4 13 9 15 4 2 53 71 107 153 54 83 105 156 112 163 6 7 12 17 12
21 0 4 9 18 20 31 11 13 20 29 20 36 0 7 3 14 8 16 11 5 82 113 82 126 0 7 5
12 11 12 5 0 8 4 5 9 -4 5 -2 11 2 13 9 3 89 130 193 303 30 50 58 93 62 96 5
3 8 10 8 15 -1 5 6 17 14 26 8 10 11 18 7 18 -4 0 -2 4 3 8 13 9 40 55 63 104
9 21 20 38 24 38 5 0 8 5 8 10 0 6 10 27 23 48 22 35 51 87 119 212 17 30 34
57 39 58 5 2 9 10 9 17 0 8 16 41 35 74 19 32 35 62 35 64 0 3 15 32 34 65 19
33 32 63 28 66 -3 3 -1 6 5 6 5 0 18 19 28 43 11 23 27 54 38 69 10 16 15 28
11 28 -3 0 -2 6 4 13 16 19 86 161 84 169 -1 5 2 8 7 8 8 0 24 37 22 53 -1 4
3 7 8 7 5 0 12 12 16 27 3 15 15 39 26 54 10 15 19 31 19 36 0 5 18 45 41 89
23 43 41 81 42 84 0 3 10 25 21 50 11 25 20 48 21 52 0 4 6 13 13 19 6 7 12
21 12 30 0 9 7 22 15 29 8 7 15 18 15 25 0 7 18 53 40 102 23 48 45 97 50 108
4 11 17 40 28 65 20 45 35 81 66 155 10 22 24 52 32 67 7 14 14 31 14 38 0 6
10 32 22 58 12 26 22 49 23 52 0 3 6 14 12 25 6 11 11 23 12 28 3 26 15 57 22
57 5 0 8 3 7 7 -3 8 24 87 47 138 8 17 27 66 43 110 17 44 33 89 38 100 4 11
8 22 9 25 1 3 6 16 12 30 5 14 22 61 37 105 15 44 34 95 43 113 8 18 17 45 19
59 3 15 8 31 12 37 4 6 7 13 8 16 0 3 3 12 7 20 15 38 109 328 113 350 3 13 9
29 13 35 5 5 12 24 16 40 5 17 9 35 11 40 2 6 5 19 8 30 2 11 10 34 16 50 6
17 13 37 15 46 2 9 13 47 25 85 12 38 26 83 30 99 5 17 18 64 30 105 13 41 23
82 23 90 0 8 3 17 7 20 5 4 55 182 64 230 6 28 18 75 23 90 8 20 12 40 15 68
1 12 6 22 10 22 4 0 7 3 6 8 -4 17 15 92 23 92 6 0 8 4 4 10 -3 5 6 53 19 107
14 54 27 109 30 123 3 14 10 43 15 65 5 22 8 41 6 44 -2 2 0 11 5 21 5 9 12
30 15 46 2 16 7 40 10 54 3 14 8 36 11 50 3 14 7 32 9 40 2 8 7 31 10 50 3 19
10 53 16 75 5 22 12 54 14 70 2 17 9 50 15 75 5 25 12 59 14 75 2 17 5 30 6
30 1 0 3 9 4 20 2 11 8 47 14 80 7 33 14 78 18 100 7 47 12 70 14 70 1 0 3 14
5 30 5 47 16 119 20 125 1 3 6 28 9 55 4 28 11 75 16 105 12 75 21 129 25 165
7 55 16 120 22 155 3 19 7 51 8 70 2 19 4 35 5 35 1 0 3 11 5 25 1 14 6 52 10
85 3 33 9 78 11 100 2 22 7 56 10 75 3 19 6 53 7 75 1 22 6 43 12 47 6 5 5 8
-3 8 -8 0 -10 5 -6 12 5 7 9 26 10 43 1 16 4 59 8 95 18 182 32 346 41 500 3
52 8 118 11 145 2 28 7 100 9 160 2 61 7 178 11 260 10 205 10 1221 0 1430 -4
94 -10 211 -12 260 -2 50 -6 122 -9 160 -2 39 -7 106 -10 150 -2 44 -7 114
-10 155 -6 71 -8 104 -20 245 -2 33 -7 83 -10 110 -15 149 -18 184 -19 227 0
27 -3 48 -6 48 -4 0 -6 10 -7 23 -1 33 -11 152 -13 152 -2 0 -7 39 -14 110 -3
33 -8 71 -10 85 -6 34 -15 103 -22 170 -3 30 -11 58 -17 62 -8 5 -8 8 -1 8 7
0 7 25 -2 81 -8 45 -16 101 -18 125 -3 24 -8 54 -10 66 -3 13 -8 43 -11 68 -3
25 -7 56 -10 70 -3 14 -8 45 -11 70 -3 25 -8 54 -10 65 -3 11 -7 36 -10 55 -2
19 -9 57 -14 83 -6 27 -8 53 -4 58 3 5 1 9 -3 9 -5 0 -9 10 -10 23 -1 12 -4
33 -6 47 -3 14 -8 41 -11 60 -3 19 -10 60 -16 90 -6 30 -13 69 -15 85 -3 17
-8 44 -12 60 -3 17 -8 39 -9 50 -10 52 -14 77 -34 175 -12 58 -23 114 -26 124
-2 11 -13 65 -24 120 -12 56 -25 117 -30 136 -5 19 -11 46 -13 60 -3 14 -15
66 -27 115 -12 50 -23 99 -25 110 -1 11 -8 40 -14 65 -7 25 -13 54 -16 65 -6
32 -14 65 -20 85 -3 10 -8 31 -10 46 -2 16 -34 142 -70 279 -36 138 -67 258
-70 268 -2 10 -7 28 -11 40 -4 12 -9 30 -11 40 -7 37 -10 53 -16 67 -7 17 -37
123 -38 130 0 3 -7 30 -16 60 -20 66 -20 67 -28 105 -3 17 -10 34 -15 39 -5 5
-6 14 -4 21 7 17 -12 14 -86 -12z m-1473 -2075 c-62 -102 -83 -134 -92 -140
-5 -4 -7 -8 -3 -8 4 0 -22 -47 -58 -105 -35 -58 -64 -109 -64 -114 0 -5 -7
-11 -15 -15 -8 -3 -15 -13 -15 -22 0 -13 -32 -68 -50 -84 -3 -3 -6 -10 -7 -15
-2 -12 -108 -195 -123 -212 -5 -7 -10 -15 -10 -18 0 -3 -11 -23 -24 -44 -14
-21 -22 -42 -19 -45 4 -3 1 -6 -5 -6 -7 0 -12 -6 -12 -14 0 -8 -3 -16 -7 -18
-5 -1 -16 -19 -27 -38 -10 -19 -59 -107 -109 -195 -50 -88 -104 -185 -121
-215 -16 -30 -40 -73 -53 -95 -12 -22 -28 -51 -35 -65 -7 -14 -23 -43 -37 -65
-13 -22 -23 -41 -20 -42 2 -1 -3 -11 -12 -21 -16 -18 -26 -40 -27 -56 0 -5 -5
-12 -10 -15 -9 -6 -108 -188 -159 -293 -13 -26 -28 -50 -33 -53 -6 -4 -8 -11
-5 -16 4 -5 2 -9 -3 -9 -8 0 -20 -28 -20 -47 0 -3 -4 -9 -10 -12 -5 -3 -47
-80 -93 -171 -46 -91 -88 -168 -94 -172 -5 -4 -6 -8 -1 -8 5 0 2 -8 -6 -17 -8
-10 -28 -46 -43 -80 -16 -35 -32 -63 -37 -63 -4 0 -7 -3 -6 -7 3 -11 -204
-426 -217 -435 -5 -4 -7 -8 -3 -8 4 0 -26 -66 -66 -147 -40 -82 -89 -182 -109
-223 -141 -297 -205 -434 -287 -615 -15 -33 -37 -81 -49 -107 -11 -26 -21 -52
-21 -57 0 -6 -5 -11 -12 -11 -6 0 -8 -3 -5 -6 4 -4 0 -19 -8 -33 -8 -14 -33
-69 -56 -121 -22 -52 -49 -113 -58 -135 -17 -38 -32 -74 -36 -85 -1 -5 -24
-56 -60 -135 -29 -64 -75 -174 -75 -178 0 -3 -12 -31 -27 -63 -15 -33 -28 -67
-30 -77 -2 -10 -11 -30 -20 -44 -10 -15 -16 -27 -14 -28 2 0 -4 -17 -13 -39
-9 -21 -16 -40 -16 -42 0 -2 -9 -23 -19 -47 -11 -23 -35 -80 -54 -127 -19 -47
-38 -94 -42 -105 -5 -11 -9 -22 -10 -25 -1 -3 -5 -14 -10 -25 -7 -17 -63 -162
-108 -280 -7 -16 -11 -33 -9 -37 1 -5 -3 -8 -8 -8 -6 0 -10 -6 -10 -12 0 -16
-47 -144 -67 -180 -8 -16 -11 -28 -7 -28 3 0 1 -6 -5 -13 -6 -8 -8 -17 -4 -20
3 -4 1 -7 -5 -7 -7 0 -11 -3 -11 -7 3 -15 -14 -73 -21 -73 -3 0 -7 -7 -8 -15
-1 -8 -3 -22 -4 -30 -1 -8 -6 -15 -11 -15 -6 0 -7 -3 -4 -6 3 -4 1 -16 -5 -28
-7 -11 -13 -25 -14 -31 -1 -5 -34 -100 -74 -210 -39 -110 -87 -247 -106 -305
-18 -58 -38 -113 -44 -123 -6 -10 -8 -22 -5 -27 4 -6 1 -10 -5 -10 -6 0 -8 -4
-5 -10 3 -5 2 -10 -2 -10 -5 0 -10 -12 -11 -26 -1 -15 -7 -33 -13 -40 -6 -8
-9 -14 -6 -14 3 0 0 -15 -8 -34 -8 -18 -11 -36 -8 -40 4 -3 2 -6 -4 -6 -5 0
-10 -6 -10 -12 0 -7 -17 -62 -37 -123 -21 -60 -38 -118 -39 -127 -1 -10 -5
-18 -10 -18 -4 0 -7 -6 -6 -12 1 -7 0 -20 -4 -28 -9 -23 -51 -161 -92 -300
-21 -69 -46 -154 -57 -190 -18 -60 -23 -78 -33 -120 -2 -8 -4 -16 -5 -17 -2
-2 -3 -6 -4 -10 -2 -5 -8 -28 -16 -53 -7 -25 -15 -54 -17 -65 -2 -11 -6 -27
-10 -35 -3 -8 -8 -24 -10 -35 -2 -11 -6 -27 -10 -35 -7 -18 -12 -38 -16 -65
-2 -12 -6 -25 -10 -31 -3 -6 -8 -21 -10 -35 -5 -26 -35 -135 -44 -159 -3 -8
-7 -24 -8 -35 -1 -11 -14 -65 -29 -120 -15 -55 -29 -107 -31 -115 -2 -8 -20
-82 -41 -165 -20 -82 -37 -158 -36 -167 0 -10 -3 -18 -7 -18 -4 0 -7 -10 -8
-22 -1 -13 -4 -33 -7 -45 -7 -27 -16 -67 -30 -133 -21 -95 -48 -222 -57 -260
-6 -25 -13 -56 -15 -70 -2 -14 -9 -45 -14 -70 -5 -25 -12 -61 -15 -80 -4 -19
-11 -55 -16 -80 -6 -25 -12 -52 -14 -60 -4 -23 -16 -92 -21 -120 -3 -14 -7
-36 -10 -50 -3 -14 -7 -36 -9 -50 -2 -14 -7 -41 -11 -60 -3 -19 -8 -44 -9 -55
-2 -11 -6 -36 -9 -55 -4 -19 -11 -62 -17 -95 -6 -33 -12 -71 -15 -85 -2 -14
-7 -47 -10 -75 -3 -27 -8 -57 -11 -65 -3 -8 -7 -28 -9 -45 -10 -87 -13 -103
-19 -140 -14 -88 -25 -163 -31 -219 -3 -33 -8 -69 -10 -80 -2 -12 -7 -41 -9
-66 -9 -72 -13 -111 -20 -168 -4 -29 -8 -69 -10 -90 -2 -20 -6 -60 -9 -87 -4
-28 -9 -73 -11 -100 -2 -28 -7 -70 -10 -95 -3 -25 -7 -79 -10 -120 -2 -41 -5
-75 -6 -75 -1 0 -3 -22 -4 -50 -2 -27 -6 -84 -9 -125 -11 -155 -17 -268 -21
-352 -1 -47 -6 -91 -9 -97 -4 -6 -2 -11 4 -11 6 0 8 -5 4 -12 -9 -14 -13 -176
-13 -533 0 -255 5 -530 9 -530 1 0 3 -45 5 -100 3 -55 6 -127 9 -160 8 -106
17 -219 22 -265 2 -25 6 -63 8 -85 5 -51 16 -142 23 -180 2 -16 6 -46 8 -65 1
-19 6 -53 9 -75 32 -192 50 -283 58 -297 5 -10 6 -18 3 -18 -8 0 -35 27 -35
34 0 8 -85 136 -105 159 -8 9 -14 18 -13 20 1 1 -5 13 -14 27 -9 14 -32 51
-52 83 -20 31 -36 62 -36 67 0 6 -4 10 -10 10 -5 0 -10 6 -10 13 0 7 -11 28
-24 47 -12 19 -40 67 -61 105 -20 39 -42 73 -49 77 -6 4 -8 8 -4 8 3 0 -5 21
-19 48 -65 121 -172 332 -167 332 2 0 -2 10 -10 23 -18 27 -127 274 -167 377
-16 41 -34 84 -39 95 -13 29 -51 136 -57 163 -3 12 -10 22 -16 22 -6 0 -8 3
-5 6 3 3 -15 67 -42 142 -26 75 -48 142 -49 147 -1 6 -7 28 -13 50 -6 22 -12
43 -14 48 -1 4 -3 9 -4 12 -1 3 -4 10 -5 15 -1 6 -3 12 -4 15 0 3 -1 6 0 8 0
1 -4 14 -10 30 -6 15 -13 38 -15 50 -2 12 -16 65 -30 117 -15 52 -29 111 -32
130 -3 19 -8 38 -10 42 -3 4 -7 24 -9 44 -3 20 -8 41 -12 47 -4 6 -8 23 -10
37 -1 14 -10 59 -18 100 -8 41 -22 113 -30 160 -8 47 -17 94 -19 105 -2 11 -7
45 -11 75 -5 30 -9 62 -11 70 -2 13 -5 43 -19 165 -2 17 -4 30 -5 30 -2 0 -7
54 -13 128 -2 26 -7 50 -10 54 -4 3 -2 13 3 23 5 10 6 20 3 24 -7 7 -14 83
-16 183 -1 35 -5 63 -10 63 -4 0 -3 9 3 19 5 11 7 22 3 24 -5 3 -8 105 -8 226
0 141 -4 221 -10 221 -7 0 -7 3 0 8 6 4 10 67 10 152 0 80 2 149 4 154 3 6 6
46 7 90 2 45 5 110 8 146 10 123 16 195 20 230 3 19 7 67 11 105 3 39 8 81 11
95 3 14 7 45 9 70 3 25 7 58 11 74 3 15 8 45 10 65 3 39 10 83 18 117 2 11 7
47 10 79 4 32 8 61 10 64 3 4 7 27 11 51 3 25 8 52 10 60 2 8 7 29 10 47 3 18
11 62 19 97 7 36 11 68 8 71 -3 3 0 5 7 5 7 0 10 4 7 8 -3 4 0 26 5 48 5 21
12 53 14 71 3 17 9 43 15 57 5 14 8 26 5 26 -2 0 1 15 6 33 6 17 13 48 16 67
3 19 10 41 15 48 6 6 8 12 6 12 -3 0 1 26 9 57 16 66 21 87 22 91 1 1 1 3 1 5
0 1 12 43 26 92 14 50 34 122 44 160 11 39 26 89 34 113 8 23 15 45 15 47 -1
7 38 137 63 210 11 33 22 67 23 75 2 8 4 16 5 18 2 1 3 5 5 10 1 4 4 14 7 22
3 8 18 51 33 95 33 99 74 213 85 240 16 40 35 90 36 100 2 6 14 38 27 73 14
34 23 62 20 62 -3 0 1 7 8 16 7 9 14 21 15 28 1 10 87 226 119 301 24 54 44
105 45 110 0 3 9 22 20 42 11 21 20 41 20 45 0 7 18 49 80 183 15 33 38 83 50
110 13 28 33 74 47 102 13 29 23 56 22 59 0 4 3 10 8 13 10 7 35 59 39 81 2 8
8 16 13 18 6 2 11 9 11 16 0 17 181 380 192 384 4 2 8 11 8 21 0 9 6 25 14 36
7 11 34 58 58 105 57 107 120 225 145 270 33 59 86 154 100 180 8 14 23 39 33
55 11 17 29 51 42 78 13 26 26 47 30 47 5 0 8 4 8 9 0 9 69 131 80 141 3 3 12
19 20 35 8 17 17 32 20 35 3 3 19 28 34 55 16 28 44 73 62 102 19 28 34 56 34
62 0 6 5 11 10 11 6 0 10 4 10 9 0 4 30 56 68 115 37 59 71 115 77 126 5 11
13 20 17 20 5 0 8 4 8 9 0 5 18 37 40 70 22 33 40 64 40 70 0 5 4 11 8 13 5 2
40 53 80 113 39 61 78 119 86 130 9 11 59 85 112 165 54 80 100 147 104 150 3
3 22 30 43 60 65 97 71 104 114 162 24 31 43 59 43 62 0 3 7 14 15 23 16 19
220 298 245 333 8 13 20 28 25 34 6 6 37 47 70 91 33 44 68 89 78 100 10 11
26 32 35 48 9 15 20 27 24 27 4 0 8 5 8 10 0 6 8 19 18 29 20 23 28 32 67 86
17 22 32 42 35 45 3 3 21 25 40 50 19 25 37 47 40 50 3 3 28 34 55 70 28 36
55 70 61 75 5 6 37 44 70 85 32 41 61 77 64 80 3 3 37 43 75 90 38 47 77 94
87 105 9 11 36 43 59 70 22 28 53 64 67 80 15 17 67 77 116 135 50 58 95 110
101 116 9 10 103 116 148 168 50 57 133 150 156 175 14 16 67 73 116 127 50
54 117 126 151 161 33 35 58 63 56 63 -2 0 124 128 281 285 157 157 288 285
292 285 3 0 -1 -10 -8 -22z"/>
</g>
</svg>
