<svg xmlns="http://www.w3.org/2000/svg" viewBox="0 0 474.97 490.14"><path d="M472.85,422.5a245.92,245.92,0,0,0-159.26-165,140,140,0,1,0-152.24,0A245.92,245.92,0,0,0,2.09,422.5a53,53,0,0,0,8.75,46.85,51.87,51.87,0,0,0,41.65,20.79h370a51.8,51.8,0,0,0,41.72-20.77,52.92,52.92,0,0,0,8.66-46.87ZM132.49,140.14a105.09,105.09,0,1,1,30.78,74.22A105,105,0,0,1,132.49,140.14ZM436.24,448.28a16.84,16.84,0,0,1-13.77,6.86H52.5a17,17,0,0,1-13.79-6.86,18.24,18.24,0,0,1-2.91-16.14,209.8,209.8,0,0,1,403.35,0,18.2,18.2,0,0,1-2.9,16.14Z"/></svg>